<svg width="387" height="45" viewBox="0 0 387 45" fill="none" xmlns="http://www.w3.org/2000/svg">
<g clip-path="url(#clip0_1633_5)">
<path d="M88.9999 26.3185C90.8327 26.3185 92.3185 24.8327 92.3185 22.9999C92.3185 21.1672 90.8327 19.6814 88.9999 19.6814C87.1672 19.6814 85.6814 21.1672 85.6814 22.9999C85.6814 24.8327 87.1672 26.3185 88.9999 26.3185Z" fill="white"/>
<path d="M93.2442 14.6138H84.7558C83.6566 14.6138 82.6023 15.0504 81.825 15.8277C81.0478 16.605 80.6111 17.6593 80.6111 18.7585V27.2442C80.6111 28.3434 81.0478 29.3976 81.825 30.1749C82.6023 30.9522 83.6566 31.3889 84.7558 31.3889H93.2442C94.3435 31.3889 95.3977 30.9522 96.175 30.1749C96.9523 29.3976 97.389 28.3434 97.389 27.2442V18.7557C97.3882 17.657 96.9512 16.6034 96.174 15.8268C95.3968 15.0501 94.343 14.6138 93.2442 14.6138ZM89 28.4323C87.9255 28.4329 86.8749 28.1147 85.9812 27.5181C85.0875 26.9216 84.3908 26.0733 83.9792 25.0807C83.5676 24.0882 83.4596 22.9958 83.6689 21.9418C83.8782 20.8879 84.3954 19.9197 85.155 19.1597C85.9146 18.3997 86.8826 17.882 87.9365 17.6722C88.9903 17.4623 90.0827 17.5698 91.0755 17.9808C92.0683 18.3919 92.9169 19.0882 93.5139 19.9816C94.111 20.875 94.4296 21.9254 94.4296 23C94.4282 24.4398 93.8557 25.8203 92.8379 26.8386C91.82 27.857 90.4399 28.4301 89 28.4323ZM94.4628 18.9105C94.197 18.911 93.9369 18.8327 93.7157 18.6853C93.4944 18.538 93.3219 18.3283 93.2199 18.0828C93.1179 17.8373 93.0911 17.567 93.1428 17.3063C93.1945 17.0455 93.3225 16.806 93.5105 16.618C93.6984 16.43 93.938 16.3021 94.1987 16.2504C94.4595 16.1986 94.7297 16.2255 94.9752 16.3274C95.2207 16.4294 95.4304 16.602 95.5778 16.8232C95.7251 17.0445 95.8035 17.3045 95.8029 17.5703C95.8022 17.9255 95.6608 18.266 95.4096 18.5172C95.1584 18.7683 94.818 18.9097 94.4628 18.9105Z" fill="white"/>
<path d="M89 2C84.8466 2 80.7865 3.23163 77.333 5.53914C73.8796 7.84665 71.188 11.1264 69.5985 14.9636C68.0091 18.8009 67.5932 23.0233 68.4035 27.0969C69.2138 31.1705 71.2139 34.9123 74.1508 37.8492C77.0877 40.7861 80.8295 42.7862 84.9031 43.5965C88.9767 44.4068 93.1991 43.9909 97.0364 42.4015C100.874 40.812 104.153 38.1204 106.461 34.667C108.768 31.2135 110 27.1534 110 23C110 17.4305 107.788 12.089 103.849 8.15076C99.911 4.21249 94.5696 2 89 2ZM99.5 27.2442C99.4985 28.9029 98.839 30.4932 97.6661 31.6661C96.4932 32.839 94.9029 33.4985 93.2442 33.5H84.7558C83.0973 33.4978 81.5074 32.838 80.3347 31.6653C79.162 30.4926 78.5022 28.9027 78.5 27.2442V18.7558C78.5022 17.0973 79.162 15.5074 80.3347 14.3347C81.5074 13.162 83.0973 12.5022 84.7558 12.5H93.2442C94.9027 12.5022 96.4926 13.162 97.6653 14.3347C98.838 15.5074 99.4978 17.0973 99.5 18.7558V27.2442Z" fill="white"/>
</g>
<path fill-rule="evenodd" clip-rule="evenodd" d="M158.554 1.20288C146.508 1.20288 136.721 10.9181 136.721 22.9824C136.721 35.0462 146.508 44.7614 158.554 44.7614C170.6 44.7614 180.279 35.0462 180.279 22.9824C180.279 10.9181 170.6 1.20288 158.554 1.20288ZM160.275 28.8541C158.661 28.7472 158.016 27.8934 156.725 27.146C156.08 30.7756 155.22 34.1918 152.746 36.0068C151.993 30.5623 153.821 26.5056 154.682 22.128C153.176 19.6726 154.897 14.5482 158.016 15.8291C161.888 17.3239 154.682 25.224 159.522 26.1848C164.684 27.2524 166.728 17.3239 163.609 14.121C158.984 9.53017 150.272 14.014 151.348 20.6332C151.67 22.235 153.284 22.7685 152.101 25.0108C149.089 24.3703 148.229 22.0211 148.336 19.032C148.551 14.014 152.853 10.4908 157.263 9.95734C162.748 9.31687 167.911 11.9857 168.556 17.11C169.417 22.9824 166.082 29.2813 160.275 28.8541Z" fill="white"/>
<g clip-path="url(#clip1_1633_5)">
<path d="M228 2C216.404 2 207 11.4038 207 23C207 34.5962 216.404 44 228 44C239.596 44 249 34.5962 249 23C249 11.4038 239.596 2 228 2ZM238.535 18.0677V20.9112C237.194 20.9116 235.892 20.6489 234.663 20.1305C233.873 19.797 233.137 19.3672 232.464 18.8479L232.484 27.6001C232.475 29.5709 231.696 31.4226 230.285 32.8173C229.136 33.9527 227.681 34.6746 226.104 34.9083C225.733 34.9632 225.356 34.9913 224.974 34.9913C223.286 34.9913 221.683 34.4443 220.372 33.4352C220.125 33.2452 219.889 33.0392 219.664 32.8173C218.135 31.3057 217.346 29.2571 217.479 27.1019C217.58 25.4613 218.237 23.8968 219.332 22.6705C220.781 21.0477 222.807 20.147 224.974 20.147C225.356 20.147 225.733 20.1757 226.104 20.2305V21.2819V24.2064C225.752 24.0905 225.377 24.0268 224.986 24.0268C223.006 24.0268 221.405 25.642 221.434 27.6232C221.453 28.8908 222.146 29.9989 223.167 30.6097C223.647 30.8968 224.199 31.0747 224.788 31.107C225.25 31.1323 225.693 31.068 226.104 30.9325C227.518 30.4653 228.538 29.1367 228.538 27.5697L228.543 21.7088V11.0087H232.459C232.463 11.3967 232.502 11.7753 232.575 12.1421C232.871 13.6269 233.708 14.9152 234.873 15.7934C235.888 16.5595 237.153 17.0136 238.524 17.0136C238.525 17.0136 238.536 17.0136 238.535 17.0127V18.0677H238.535Z" fill="white"/>
</g>
<g clip-path="url(#clip2_1633_5)">
<path d="M21 2C16.8466 2 12.7865 3.23163 9.33303 5.53914C5.8796 7.84665 3.18798 11.1264 1.59854 14.9636C0.00909892 18.8009 -0.406771 23.0233 0.403519 27.0969C1.21381 31.1705 3.21386 34.9123 6.15077 37.8492C9.08767 40.7861 12.8295 42.7862 16.9031 43.5965C20.9767 44.4068 25.1991 43.9909 29.0364 42.4015C32.8736 40.812 36.1534 38.1204 38.4609 34.667C40.7684 31.2135 42 27.1534 42 23C42 17.4305 39.7875 12.089 35.8493 8.15076C31.911 4.21249 26.5696 2 21 2ZM26.3219 21.0105L25.9737 23.9367C25.9587 24.0725 25.8939 24.1979 25.7918 24.2887C25.6898 24.3796 25.5577 24.4294 25.4211 24.4286H22.3816V33.1049C22.3823 33.2085 22.3421 33.3081 22.2696 33.3822C22.1971 33.4562 22.0983 33.4985 21.9947 33.5H18.9C18.8485 33.4993 18.7976 33.4884 18.7503 33.468C18.7029 33.4476 18.6601 33.4181 18.6242 33.3812C18.5882 33.3442 18.56 33.3006 18.5409 33.2527C18.5219 33.2048 18.5124 33.1536 18.5132 33.1021L18.5297 24.4286H16.228C16.0815 24.4286 15.9409 24.3703 15.8373 24.2667C15.7336 24.1631 15.6754 24.0225 15.6754 23.8759V20.9525C15.6754 20.8059 15.7336 20.6654 15.8373 20.5617C15.9409 20.4581 16.0815 20.3999 16.228 20.3999H18.5132V17.5649C18.5132 14.285 20.4667 12.5 23.3211 12.5H25.6615C25.808 12.5 25.9486 12.5582 26.0522 12.6619C26.1559 12.7655 26.2141 12.9061 26.2141 13.0526V15.5146C26.2141 15.6612 26.1559 15.8017 26.0522 15.9054C25.9486 16.009 25.808 16.0672 25.6615 16.0672H24.2274C22.6745 16.0921 22.3816 16.8354 22.3816 17.9462V20.3916H25.7858C25.8629 20.3933 25.9388 20.4112 26.0086 20.444C26.0783 20.4769 26.1405 20.524 26.191 20.5823C26.2415 20.6406 26.2792 20.7088 26.3017 20.7826C26.3243 20.8563 26.3311 20.934 26.3219 21.0105Z" fill="white"/>
</g>
<g clip-path="url(#clip3_1633_5)">
<path d="M293.929 18.9768L300.636 23L293.929 27.0259V18.9768Z" fill="white"/>
<path d="M296.5 2C292.248 2 288.091 3.23163 284.555 5.53914C281.02 7.84665 278.264 11.1264 276.637 14.9636C275.009 18.8009 274.584 23.0233 275.413 27.0969C276.243 31.1705 278.29 34.9123 281.297 37.8492C284.304 40.7861 288.135 42.7862 292.306 43.5965C296.476 44.4068 300.799 43.9909 304.728 42.4015C308.656 40.812 312.014 38.1204 314.377 34.667C316.739 31.2135 318 27.1534 318 23C318 17.4305 315.735 12.089 311.703 8.15076C307.671 4.21249 302.202 2 296.5 2ZM306.746 28.0538C306.316 29.3442 304.893 30.1289 303.584 30.3086C298.875 30.7976 294.126 30.7976 289.416 30.3086C288.107 30.1289 286.684 29.3442 286.254 28.0538C285.583 24.7174 285.583 21.2854 286.254 17.9489C286.684 16.6447 288.107 15.8738 289.428 15.6942C294.137 15.2051 298.886 15.2051 303.595 15.6942C304.905 15.8738 306.328 16.6558 306.758 17.9489C307.424 21.2861 307.421 24.7181 306.746 28.0538Z" fill="white"/>
</g>
<path d="M356.105 12.2532L371.526 33.7981H374.876L359.455 12.2532H356.105Z" fill="white"/>
<path d="M365.5 2C353.626 2 344 11.4022 344 23C344 34.5978 353.626 44 365.5 44C377.374 44 387 34.5978 387 23C387 11.4022 377.374 2 365.5 2ZM370.5 35.3289L363.759 25.7469L355.319 35.3289H353.138L362.791 24.3706L353.138 10.6495H360.5L366.883 19.7232L374.875 10.6495H377.056L367.852 21.0996H367.851L377.861 35.3289H370.499H370.5Z" fill="white"/>
<defs>
<clipPath id="clip0_1633_5">
<rect width="42" height="42" fill="white" transform="translate(68 2)"/>
</clipPath>
<clipPath id="clip1_1633_5">
<rect width="42" height="42" fill="white" transform="translate(207 2)"/>
</clipPath>
<clipPath id="clip2_1633_5">
<rect width="42" height="42" fill="white" transform="translate(0 2)"/>
</clipPath>
<clipPath id="clip3_1633_5">
<rect width="43" height="42" fill="white" transform="translate(275 2)"/>
</clipPath>
</defs>
</svg>
