<svg width="105" height="76" viewBox="0 0 105 76" fill="none" xmlns="http://www.w3.org/2000/svg">
<g id="Layer 2">
<g id="Group">
<path id="Vector" d="M18.922 20.1404C19.1579 20.1674 19.3581 20.2755 19.5206 20.4647C19.6763 20.6171 19.8321 20.8701 19.9878 21.2239C20.1436 21.5778 20.2526 22.0593 20.3149 22.6687C20.3839 23.3149 20.4395 23.9807 20.4818 24.6662C20.5241 25.3542 20.5241 25.9832 20.4818 26.5581C20.4395 27.1331 20.3372 27.6368 20.1747 28.0717C20.0123 28.5066 19.7586 28.7916 19.416 28.9316C18.902 29.0299 17.8406 29.1257 16.2318 29.2166C15.482 29.2879 14.6231 29.3616 13.6596 29.4378C12.6939 29.5139 11.7059 29.595 10.6935 29.681C10.2062 29.74 9.71223 29.8063 9.20935 29.8849C8.7087 29.9636 8.22807 30.0103 7.76524 30.025C7.96328 31.4869 8.18134 32.9267 8.42166 34.342C8.66197 35.7597 8.91341 37.1921 9.17597 38.6393C12.2911 37.6 15.4642 36.9341 18.695 36.6393C18.7262 36.6344 18.7774 36.6418 18.8486 36.6639C18.9176 36.6884 19.0288 36.7572 19.1801 36.8752C19.3092 37.0693 19.4427 37.3371 19.5806 37.6762C19.7164 38.0152 19.8165 38.4894 19.881 39.0988C19.95 39.745 20.0056 40.4108 20.0479 41.0963C20.0902 41.7843 20.1058 42.4109 20.0969 42.9784C20.088 43.5485 20.0323 44.0423 19.9344 44.4625C19.8343 44.8851 19.6652 45.1725 19.4249 45.3273C19.2647 45.3593 18.9977 45.4084 18.6305 45.4797C18.2611 45.5509 17.7961 45.605 17.2398 45.6369C16.1295 45.7401 15.0303 45.8531 13.94 45.9711C12.8496 46.0915 11.746 46.293 10.6334 46.5804C11.0785 48.7623 11.5279 50.9343 11.9863 53.094C12.4447 55.2537 13.5906 60.0424 14.0935 62.1751C14.1291 62.6076 14.1113 63.0302 14.0468 63.4454C13.9355 63.7968 13.7597 64.1408 13.5172 64.4798C13.2746 64.8189 12.8897 65.0941 12.3646 65.3054C11.8372 65.5167 11.2876 65.7231 10.7113 65.9246C10.135 66.126 9.57427 66.2268 9.03134 66.2219C8.48618 66.2169 7.98553 66.0572 7.52493 65.7452C7.06433 65.4332 6.69051 64.8828 6.40125 64.0965C6.27441 63.7182 5.40662 60.2857 5.13515 59.0768C4.86146 57.868 4.54994 56.3643 4.19837 54.5682C3.30165 49.7328 2.51841 44.89 1.8531 40.0447C1.18556 35.2069 0.575877 30.3149 0.0284968 25.3739C-0.0160057 25.0913 -0.00933029 24.8333 0.0551982 24.5999C0.0908002 24.4107 0.188706 24.1994 0.348914 23.966C0.509123 23.735 0.760562 23.5483 1.09878 23.4107L1.14773 23.4009C4.07154 22.5458 7.00203 21.8431 9.94364 21.2927C12.8852 20.7448 15.878 20.3591 18.9242 20.1379L18.922 20.1404Z" fill="white"/>
<path id="Vector_2" d="M34.8629 34.5952C35.8152 35.2267 36.6252 35.9957 37.2949 36.9024C37.9647 37.809 38.5254 38.7967 38.9793 39.8656C39.431 40.9368 39.7871 42.067 40.0496 43.2587C40.31 44.4504 40.508 45.6494 40.6415 46.8509C40.9597 49.2317 41.1288 51.6371 41.1422 54.0671C41.1577 56.4971 41.0843 58.9419 40.9219 61.3964C40.8618 62.0942 40.8017 62.6667 40.7461 63.1114C40.6882 63.5586 40.5881 63.9198 40.4457 64.195C40.3011 64.4726 40.103 64.6913 39.8471 64.8559C39.5913 65.0181 39.2352 65.1655 38.7791 65.2982C38.3474 65.3473 37.8979 65.3793 37.4307 65.3989C36.9612 65.4186 36.5273 65.2712 36.129 64.9567C35.7529 64.6717 35.4436 64.1901 35.2011 63.5144C34.9585 62.8387 34.8317 61.8731 34.825 60.6151L34.8317 60.195C34.1998 60.0991 33.4499 60.0181 32.5777 59.9443C31.7054 59.8731 30.8154 59.8215 29.9053 59.792C28.9952 59.7625 28.1163 59.738 27.2685 59.7232C26.4208 59.7085 25.7065 59.6962 25.1257 59.6839C25.0968 59.9345 25.059 60.3522 25.0123 60.9394C24.9655 61.5242 24.8743 62.109 24.7408 62.6938C24.6051 63.2785 24.427 63.8068 24.2045 64.2761C23.982 64.7478 23.6816 64.9935 23.3011 65.0132C22.9451 65.0353 22.5424 65.055 22.0862 65.0746C21.6301 65.0943 21.1895 65.0304 20.76 64.883C20.3306 64.765 19.9746 64.5341 19.6875 64.1925C19.4005 63.851 19.2514 63.3203 19.2358 62.593C19.2492 61.7281 19.2759 60.7355 19.3182 59.62C19.3604 58.5045 19.4272 57.2883 19.5229 55.9787C19.5896 54.8902 19.6898 53.6986 19.821 52.4013C19.9546 51.104 20.137 49.7747 20.3729 48.4086C20.6065 47.045 20.9069 45.6813 21.2674 44.3177C21.6278 42.9565 22.0773 41.6641 22.6136 40.4454C23.1498 39.2267 23.7795 38.1063 24.5027 37.0842C25.2259 36.0645 26.087 35.2119 27.0816 34.5314C28.2565 33.7426 29.5404 33.3594 30.9311 33.3839C32.3218 33.4085 33.6324 33.809 34.8606 34.5854L34.8629 34.5952ZM25.366 53.4922C26.9615 53.3816 28.5502 53.3055 30.1323 53.2637C31.7143 53.2219 33.3008 53.244 34.894 53.3276C34.9986 51.3472 34.9496 49.5708 34.7449 48.0032C34.5402 46.4356 34.2421 45.1088 33.8549 44.0277C33.4655 42.9467 32.996 42.1137 32.4486 41.5314C31.9012 40.9491 31.3361 40.6518 30.7531 40.642C30.2457 40.6321 29.7184 40.9098 29.1666 41.4724C28.6147 42.0351 28.0963 42.8631 27.6112 43.959C27.1261 45.0548 26.6833 46.4086 26.2806 48.0204C25.8778 49.6347 25.573 51.4578 25.366 53.4947V53.4922Z" fill="white"/>
<path id="Vector_3" d="M83.7554 58.4702C83.7754 59.0009 83.7821 59.5636 83.7732 60.1558C83.7643 60.7479 83.7287 61.3007 83.6642 61.8142C83.5997 62.3278 83.4951 62.7627 83.3482 63.1189C83.2014 63.4752 82.9855 63.6988 82.7029 63.7872C82.5605 63.8462 82.2846 63.8732 81.8752 63.8659C81.4658 63.8585 80.9785 63.8339 80.4133 63.7921C78.8891 63.7037 77.307 63.684 75.6671 63.7307C74.0272 63.7799 72.345 63.7872 70.6228 63.7577C70.2 63.7504 69.7683 63.7332 69.33 63.7111C68.8916 63.6865 68.4911 63.5858 68.1262 63.4089C67.7613 63.2319 67.4408 62.969 67.1627 62.6201C66.8845 62.2712 66.6932 61.7848 66.5908 61.1582C66.5641 61.001 66.5508 60.4481 66.5508 59.4973C66.5508 58.5464 66.5619 57.3621 66.5819 55.942C66.602 54.5242 66.6264 52.9247 66.6531 51.1458C66.6798 49.367 66.7132 47.5512 66.7533 45.6962C66.7933 43.8411 66.8356 42.018 66.8756 40.2219C66.9157 38.4283 66.9469 36.814 66.9669 35.3791C66.9869 33.9442 67.0114 32.7452 67.0403 31.7771C67.0692 30.8115 67.0848 30.2341 67.087 30.0474C67.0626 29.7673 67.0937 29.5167 67.1827 29.3004C67.2428 29.1137 67.3719 28.9466 67.5721 28.7918C67.7724 28.6395 68.0705 28.5511 68.4666 28.5265C68.8627 28.5019 69.3633 28.4872 69.9708 28.4823C70.5783 28.4773 71.1635 28.5044 71.7286 28.5609C72.2938 28.6174 72.7856 28.7427 73.2061 28.9393C73.6267 29.1334 73.8492 29.4184 73.8714 29.7943C73.8625 34.2857 73.8314 38.7551 73.7824 43.1998C73.7312 47.6446 73.66 52.0967 73.5666 56.5562C75.0085 56.426 76.4726 56.3277 77.9568 56.2614C79.4409 56.195 81.0742 56.1606 82.852 56.1606C83.0501 56.1631 83.2103 56.254 83.3349 56.426C83.4595 56.6004 83.5485 56.8117 83.6019 57.0624C83.6553 57.313 83.6931 57.5636 83.7176 57.8142C83.7421 58.0648 83.7532 58.2835 83.751 58.4702H83.7554Z" fill="white"/>
<path id="Vector_4" d="M104.167 32.3788C103.809 32.0987 103.363 31.8775 102.836 31.7203C102.307 31.563 101.753 31.4549 101.167 31.3984C100.582 31.3419 100.07 31.2903 99.6275 31.2461C99.1825 31.2387 98.8487 31.3198 98.6284 31.4893C98.4082 31.6613 98.2413 31.8652 98.1256 32.0987C97.9765 32.3665 97.903 32.6908 97.903 33.079C97.8519 33.7056 97.8274 34.4156 97.8274 35.2068C97.8274 35.998 97.8074 36.8211 97.7718 37.6786C97.7339 38.5361 97.6716 39.3985 97.5871 40.2683C97.5003 41.1381 97.3468 41.9661 97.1243 42.7523C96.7171 44.2585 96.1808 45.4526 95.5222 46.3371C94.8613 47.2216 94.1671 47.8384 93.4395 48.1873C92.7118 48.5362 91.9776 48.6418 91.2433 48.4968C90.5067 48.3543 89.8437 48.0079 89.2518 47.4575C88.4841 46.7155 87.9523 45.713 87.6564 44.455C87.3604 43.197 87.2113 41.8825 87.2113 40.5115C87.2113 39.1405 87.2959 37.7965 87.465 36.4771C87.6341 35.1601 87.7854 34.0839 87.9167 33.2535C87.9701 32.9783 88.0146 32.7277 88.048 32.5016C88.0814 32.2756 88.1259 32.0274 88.1793 31.7498C88.2082 31.4009 88.048 31.0962 87.7053 30.8333C87.3604 30.5704 86.9332 30.3542 86.4214 30.1797C85.9097 30.0077 85.3556 29.8726 84.7593 29.7792C84.1629 29.6859 83.66 29.5999 83.2529 29.5262C82.7233 29.3689 82.2716 29.4647 81.8933 29.8136C81.515 30.1625 81.2725 30.6146 81.1635 31.165C80.6561 33.5041 80.309 35.8161 80.1243 38.0987C79.9396 40.3813 79.9641 42.5459 80.1955 44.5877C80.4269 46.632 80.8675 48.4747 81.515 50.1209C82.1625 51.7671 83.0392 53.116 84.1474 54.175C85.2555 55.234 86.6239 55.922 88.2527 56.2389C89.8815 56.5583 91.7862 56.4207 93.9668 55.8261C94.1159 58.0203 93.4461 60.9073 92.8209 61.9736C91.8997 63.5412 91.3389 65.2955 86.7752 66.4233C85.636 66.7058 84.4833 66.8287 83.3107 66.7673C82.1381 66.7034 81.1167 66.5437 80.2467 66.2808C79.686 66.1211 79.2254 66.3127 78.8627 66.8557C78.5 67.3987 78.253 68.0867 78.124 68.9172C77.9927 69.7476 77.9637 70.6051 78.0349 71.4897C78.1062 72.3742 78.2641 73.0769 78.5089 73.5929C78.8627 74.33 79.4234 74.8607 80.1933 75.1826C80.7718 75.4234 81.3771 75.5929 82.0112 75.6936L81.9934 75.7157C81.9934 75.7157 90.8138 77.6912 96.4745 69.7231C101.855 62.3102 103.007 49.6566 103.007 49.6566C103.074 49.2069 103.148 48.6959 103.228 48.1234C103.306 47.5509 103.406 46.718 103.526 45.6221C103.646 44.5263 103.791 43.03 103.96 41.1331C104.129 39.2363 104.356 36.7179 104.641 33.5852C104.683 33.0618 104.525 32.6613 104.165 32.3788H104.167Z" fill="white"/>
<path id="Vector_5" d="M64.8082 48.0815C64.6191 46.3911 64.0405 44.8776 63.0748 43.5385C62.1091 42.1994 60.8987 41.2018 59.4434 40.5458C59.8595 39.5139 60.151 38.5409 60.3179 37.6318C60.4848 36.7227 60.5582 35.875 60.5382 35.0888C60.5159 34.3025 60.4047 33.5679 60.2044 32.8848C60.0042 32.2018 59.7572 31.5654 59.4612 30.9757C58.7737 29.6317 57.8057 28.6096 56.5597 27.9069C55.3136 27.2042 53.9407 26.757 52.4432 26.5678C50.9457 26.3786 49.4081 26.4204 47.835 26.6907C47.4812 26.7521 47.1341 26.8233 46.7914 26.902L46.7758 26.9044C46.1884 27.042 45.6165 27.2042 45.0647 27.3958L42.0986 28.2484C42.083 28.2533 42.0697 28.2558 42.0541 28.2607C41.885 28.3123 41.7159 28.3713 41.5446 28.4401C41.1974 28.5777 40.8681 28.7275 40.5566 28.8872C40.2451 29.047 39.9558 29.1845 39.691 29.2976C39.3239 29.4745 39.068 29.676 38.9189 29.8971C38.7698 30.1207 38.6897 30.332 38.6808 30.5285C38.6252 30.7718 38.6563 31.0199 38.781 31.2755C39.5597 33.563 40.2251 35.8676 40.7791 38.1895C41.3332 40.5139 41.8805 42.821 42.4279 45.1134C42.8374 46.8653 43.2401 48.6122 43.6317 50.3543C44.0233 52.0963 44.3771 53.7106 44.6931 55.1995C45.0269 56.6516 45.3072 57.885 45.532 58.8998C45.7567 59.917 45.9392 60.5804 46.0749 60.8949C46.3019 61.5706 46.6134 62.0497 47.0072 62.3347C47.4011 62.6197 47.8283 62.7794 48.2933 62.8163C48.7562 62.8531 49.2502 62.8065 49.7753 62.6787C50.3004 62.5509 50.8033 62.3961 51.2861 62.2168C51.4152 62.1455 51.5309 62.0841 51.6377 62.0374C51.6488 62.0325 51.66 62.0251 51.6733 62.0202L52.6791 61.6688C53.9741 61.3789 55.3047 60.917 56.6709 60.2806C58.2841 59.5288 59.7216 58.5705 60.9854 57.4084C62.2471 56.2462 63.2528 54.8776 64.0027 53.3051C64.7526 51.7326 65.0196 49.9931 64.8037 48.084L64.8082 48.0815ZM48.1598 41.1306C47.8038 39.9463 47.4634 38.7866 47.1341 37.6564C46.807 36.5261 46.4554 35.3885 46.0794 34.2411C47.4411 33.5998 48.6227 33.2779 49.6195 33.2804C50.6164 33.2829 51.4152 33.4843 52.0138 33.8848C52.6123 34.2853 53.0039 34.8283 53.1908 35.5163C53.3778 36.2043 53.3199 36.9094 53.0173 37.6318C52.7147 38.3542 52.1606 39.0348 51.3529 39.6711C50.5452 40.3075 49.4793 40.794 48.1576 41.1331L48.1598 41.1306ZM57.1471 50.7646C56.7866 51.4894 56.1436 52.1725 55.2202 52.8113C54.2967 53.4501 53.0751 53.9047 51.5598 54.1725L50.1135 48.4009C51.5398 47.5434 52.777 47.0446 53.8272 46.9021C54.8753 46.7596 55.7052 46.8555 56.3171 47.1847C56.9268 47.5164 57.3095 48.0152 57.4608 48.681C57.6122 49.3469 57.5098 50.0422 57.1493 50.767L57.1471 50.7646Z" fill="white"/>
</g>
<g id="Group_2">
<path id="Vector_6" d="M30.3215 3.3197L29.9766 6.09859C29.9277 6.48926 29.7029 6.82833 29.3803 6.99786L25.9803 8.77183C25.1281 9.21656 25.1859 10.5753 26.0715 10.9316L28.4613 11.8873C28.9687 12.0888 29.2557 12.681 29.1311 13.2584L28.2878 17.1699C28.0452 18.2928 29.2668 19.084 30.0367 18.3026L33.143 15.1429C33.4968 14.7842 34.0219 14.7326 34.4291 15.0151L36.7388 17.2584C37.6132 17.8702 38.6813 16.8776 38.2852 15.8235L37.2706 11.4942C37.1193 11.0863 37.186 10.6195 37.4441 10.2854L39.4467 6.82342C40.0609 6.0298 39.5002 4.81357 38.5589 4.89465L35.1367 5.76935C34.8007 5.79884 34.4714 5.64896 34.2511 5.36886L32.1706 2.71527C31.5743 1.95359 30.4439 2.32461 30.3193 3.32216L30.3215 3.3197Z" fill="#DE9F38"/>
<path id="Vector_7" d="M60.973 1.82583C57.1035 -3.27741 53.3319 3.89464 53.1272 4.29759C52.9203 3.89464 49.1509 -3.27741 45.2814 1.82583C42.4244 7.48926 47.7402 11.0446 51.9679 13.7276C52.6866 14.1847 53.57 14.1847 54.2887 13.7276C58.5164 11.0446 63.83 7.48926 60.9752 1.82583H60.973Z" fill="#DF4825"/>
<path id="Vector_8" d="M78.9319 7.578H78.9341C78.9275 7.56572 78.9208 7.55097 78.9141 7.53623C78.7739 7.16768 78.5981 6.82124 78.4023 6.492C77.7393 5.27331 77.0116 4.39616 76.3352 3.76716C75.8991 3.34701 75.4585 3.03251 75.0602 2.79909C74.3081 2.347 73.7897 2.23398 73.7897 2.23398C73.6962 2.20695 73.6317 2.19221 73.6183 2.19221C73.6183 2.19221 73.3691 2.14061 73.0776 2.22169C73.0754 2.22169 73.0709 2.22169 73.0687 2.22169C72.6838 2.33471 72.2276 2.68607 72.1809 3.71065C72.1408 3.99812 72.1497 4.1652 72.1386 4.18977L71.9317 10.438C71.8983 11.4404 71.2886 11.5092 70.9037 11.4527C70.8058 11.4232 70.7034 11.3962 70.5944 11.3716H70.5899C69.9825 11.2463 69.2549 11.2341 68.6296 11.2144C65.8571 11.121 64.1972 12.669 64.1326 14.6813C64.0703 16.6936 66.2799 18.2046 69.039 18.497C70.67 18.669 71.816 18.357 72.7817 17.3864C73.6673 16.497 74.1346 15.2513 74.1524 13.9712L74.2458 6.78438C74.2458 6.78438 74.2792 5.68855 75.0246 6.14556C75.7099 6.56571 77.0762 8.35933 76.9093 10.0793C76.8893 10.2193 76.8648 10.3643 76.8358 10.5191C76.7224 11.1014 77.0317 11.6689 77.5434 11.8827C77.6658 11.9343 77.7971 11.9638 77.9395 11.9712C78.5247 11.9957 79.0231 11.5314 79.1366 10.9368C79.4014 9.54362 79.2679 8.48219 78.9297 7.57554L78.9319 7.578Z" fill="#50AECF"/>
</g>
</g>
</svg>
